<?xml version="1.0" encoding="UTF-8"?>
<svg width="54px" height="54px" viewBox="0 0 54 54" version="1.1" xmlns="http://www.w3.org/2000/svg">
    <g fill="red" fill-rule="evenodd">
        <path d="M6,0 L33.5147186,0 C35.1060176,6.45011102e-15 36.632141,0.632141042 37.7573593,1.75735931 L52.2426407,16.2426407 C53.367859,17.367859 54,18.8939824 54,20.4852814 L54,48 C54,51.3137085 51.3137085,54 48,54 L6,54 C2.6862915,54 4.05812251e-16,51.3137085 0,48 L0,6 C-4.05812251e-16,2.6862915 2.6862915,6.08718376e-16 6,0 Z" />
        <path d="M33.5147186,0 C35.1060176,6.45011102e-15 36.632141,0.632141042 37.7573593,1.75735931 L52.2426407,16.2426407 C53.367859,17.367859 54,18.8939824 54,20.4852814 L54,22 C54,19.790861 52.209139,18 50,18 L40,18 C37.790861,18 36,16.209139 36,14 L36,4 C36,1.790861 34.209139,-3.88578059e-16 32,0 L33.5147186,0 Z" fill="#000000" style="mix-blend-mode: normal;" opacity="0.15"/>
        <text id="pdf" font-family="Roboto-Medium, Roboto" font-size="18" font-weight="400" fill="#FFFFFF">
            <tspan x="13.6450195" y="42">pdf</tspan>
        </text>
    </g>
</svg>