<?xml version="1.0" encoding="iso-8859-1"?>
<!-- Generator: Adobe Illustrator 17.1.0, SVG Export Plug-In . SVG Version: 6.00 Build 0)  -->
<!DOCTYPE svg PUBLIC "-//W3C//DTD SVG 1.1//EN" "http://www.w3.org/Graphics/SVG/1.1/DTD/svg11.dtd">
<svg version="1.1" id="Capa_1" xmlns="http://www.w3.org/2000/svg" xmlns:xlink="http://www.w3.org/1999/xlink" x="0px" y="0px"
     viewBox="0 0 455 455" style="enable-background:new 0 0 455 455;" xml:space="preserve">
<g>
	<path fill="#aaaaaa" d="M419.967,162.004c-21.894-21.728-52.521-37.201-86.24-43.57c-4.069-0.766-7.993,1.908-8.762,5.978
		c-0.769,4.07,1.907,7.993,5.978,8.762C395.154,145.302,440,189.928,440,241.696c0,42.636-30.352,80.956-79.21,100.006
		c-2.494,0.973-4.281,3.201-4.688,5.847c-2.964,19.25,1.082,38.841,10.969,55.161c-21.588-5.766-39.074-22.333-45.875-44.782
		c-1.028-3.394-4.302-5.61-7.827-5.297c-5.297,0.46-10.636,0.694-15.869,0.694c-46.659,0-90.456-18-117.157-48.151
		c-2.745-3.101-7.485-3.389-10.587-0.643c-3.101,2.746-3.389,7.486-0.643,10.587c29.504,33.316,77.5,53.207,128.387,53.207
		c3.738,0,7.524-0.11,11.313-0.328c5.437,14.023,14.79,26.508,26.772,35.604c14.075,10.685,30.851,16.332,48.512,16.332
		c3.027,0,5.757-1.82,6.922-4.614s0.536-6.014-1.594-8.165c-13.83-13.961-20.775-33.575-19.005-53.169
		c24.22-10.168,44.756-25.233,59.594-43.76C446.36,289.816,455,266.12,455,241.696C455,212.727,442.559,184.425,419.967,162.004z"/>
    <path fill="#aaaaaa" d="M315,161.696c0-34.155-16.61-66.156-46.771-90.109c-29.653-23.55-68.978-36.519-110.729-36.519
		c-41.754,0-81.08,12.969-110.731,36.519C16.609,95.54,0,127.541,0,161.696c0,24.424,8.64,48.121,24.985,68.529
		c14.838,18.526,35.375,33.592,59.594,43.76c1.77,19.594-5.175,39.208-19.005,53.169c-2.13,2.15-2.759,5.371-1.594,8.165
		s3.896,4.614,6.922,4.614c17.662,0,34.437-5.647,48.512-16.332c11.982-9.095,21.335-21.581,26.772-35.604
		c3.789,0.218,7.575,0.328,11.313,0.328c41.752,0,81.077-12.969,110.729-36.519C298.39,227.852,315,195.851,315,161.696z
		 M141.631,272.63c-3.536-0.309-6.799,1.902-7.827,5.297c-6.801,22.448-24.286,39.015-45.875,44.781
		c9.887-16.319,13.933-35.911,10.969-55.161c-0.407-2.646-2.194-4.874-4.688-5.847C45.352,242.652,15,204.332,15,161.696
		c0-61.552,63.925-111.628,142.5-111.628c78.575,0,142.5,50.076,142.5,111.628c0,61.552-63.925,111.628-142.5,111.628
		C152.267,273.324,146.928,273.091,141.631,272.63z"/>
</g>
</svg>